# xmcd
#
# Track frame offsets: 
#        150
#        10182
#        24925
#        37018
#        56197
#        69402
#        80302
#        93870
#        109178
#        119646
#        133431
#        147138
#        165958
#
# Disc length: 2323 seconds
#
# Revision: 0
# Processed by: cddbd v1.5.2PL0 Copyright (c) Steve Scherf et al.
# Submitted via: ExactAudioCopy v1.0b3
#
DISCID=ab09110d
DTITLE=The Cadillac Jack Revue - The Beat Goes On
DYEAR=2014
DGENRE=Blues-Rock
TTITLE0=Cadillac Shuffle
TTITLE1=The Beat Goes On (feat. Janiva Magness)
TTITLE2=Truck Drivin' Man
TTITLE3=Texas
TTITLE4=I'm the Man
TTITLE5=Down at the New Orleans
TTITLE6=Guitar Man
TTITLE7=Somethin 'bout Somethin
TTITLE8=Any Day Now
TTITLE9=Knockin on my Door
TTITLE10=Baby Please (feat. Janiva Magness)
TTITLE11=Strange Things (feat. Janiva Magness)
TTITLE12=The Stomp
EXTD=
EXTT0=
EXTT1=
EXTT2=
EXTT3=
EXTT4=
EXTT5=
EXTT6=
EXTT7=
EXTT8=
EXTT9=
EXTT10=
EXTT11=
EXTT12=
PLAYORDER=
